<svg id="SvgjsSvg1017" xmlns="http://www.w3.org/2000/svg" version="1.1" xmlns:xlink="http://www.w3.org/1999/xlink" xmlns:svgjs="http://svgjs.com/svgjs" width="20" height="20" viewBox="0 0 20 20"><title>Layer 217</title><desc>Created with Avocode.</desc><defs id="SvgjsDefs1018"></defs><path id="SvgjsPath1019" d="M1056 1251C1061.52 1251 1066 1255.48 1066 1261C1066 1266.52 1061.52 1271 1056 1271C1050.48 1271 1046 1266.52 1046 1261C1046 1255.48 1050.48 1251 1056 1251ZM1048 1261C1048 1265.42 1051.58 1269 1056 1269C1060.42 1269 1064 1265.42 1064 1261C1064 1256.58 1060.42 1253 1056 1253C1051.58 1253 1048 1256.58 1048 1261ZM1052.46 1258.88L1053.88 1257.46L1056 1259.58L1058.12 1257.46L1059.54 1258.88L1057.42 1261L1059.54 1263.12L1058.12 1264.54L1056 1262.42L1053.88 1264.54L1052.46 1263.12L1054.58 1261Z " fill="#ff5063" fill-opacity="1" transform="matrix(1,0,0,1,-1046,-1251)"></path></svg>