<svg id="SvgjsSvg1020" xmlns="http://www.w3.org/2000/svg" version="1.1" xmlns:xlink="http://www.w3.org/1999/xlink" xmlns:svgjs="http://svgjs.com/svgjs" width="20" height="20" viewBox="0 0 20 20"><title>Layer 220</title><desc>Created with Avocode.</desc><defs id="SvgjsDefs1021"></defs><path id="SvgjsPath1022" d="M762 1251C767.523 1251 772 1255.48 772 1261C772 1266.52 767.523 1271 762 1271C756.477 1271 752 1266.52 752 1261C752 1255.48 756.477 1251 762 1251ZM754 1261C754 1265.42 757.582 1269 762 1269C766.418 1269 770 1265.42 770 1261C770 1256.58 766.418 1253 762 1253C757.582 1253 754 1256.58 754 1261ZM768.002 1258.16L760.9209999999999 1265L760.896 1264.98L760.871 1265L756.997 1260.83L759.122 1259.6599999999999L760.896 1261.81L765.8779999999999 1257Z " fill="#00b06c" fill-opacity="1" transform="matrix(1,0,0,1,-752,-1251)"></path></svg>